<?xml version="1.0" encoding="UTF-8" standalone="no"?>
<!-- Created with Inkscape (http://www.inkscape.org/) -->

<svg
   width="48"
   height="48"
   viewBox="0 0 48 48"
   xmlns="http://www.w3.org/2000/svg">
  <path
     d="M 26.666667,29.866667 C 27.733333,32 30.4,35.2 33.066667,35.2 37.866667,35.2 40,30.933333 40,25.6 40,20.266667 37.866667,15.466667 33.066667,15.466667 30.4,15.466667 28.8,18.133333 27.2,19.733333 c -0.533333,0.533334 -1.066667,0 -0.533333,-0.533333 1.6,-1.6 4.266666,-5.866667 4.266666,-9.6000001 C 30.933333,5.3333333 28.266667,0 24,0 c -4.266667,0 -6.933333,5.3333333 -6.933333,9.5999999 0,3.7333331 2.666666,8.0000001 4.266666,9.6000001 0.533334,0.533333 0,1.066667 -0.533333,0.533333 -1.6,-1.6 -3.2,-4.266666 -5.866667,-4.266666 -4.8,0 -6.933333,4.8 -6.933333,10.133333 0,5.333333 2.133333,9.6 6.933333,9.6 2.666667,0 5.333334,-3.2 6.4,-5.333333 0.533334,-0.533334 0.533334,0 0.533334,0.533333 C 21.333333,34.666667 21.333333,35.733333 20.8,38.933333 20.266667,42.133333 18.666667,48 18.666667,48 c 2.666666,-1.066667 8,-1.066667 10.666666,0 0,0 -1.6,-5.866667 -2.133333,-9.066667 -0.533333,-3.2 -0.533333,-4.266666 -1.066667,-8.533333 0,-0.533333 0,-1.066667 0.533334,-0.533333 z"
     fill="currentColor"/>
</svg>
