<?xml version="1.0" encoding="UTF-8" standalone="no"?>
<!-- Created with Inkscape (http://www.inkscape.org/) -->

<svg
   width="48"
   height="48"
   viewBox="0 0 48 48"
   xmlns="http://www.w3.org/2000/svg">
  <path
     d="M 23.466667,9.6 C 23.466667,3.7089653 20.418277,0 16,0 11.581723,0 8,4.775632 8,10.666667 c 0.018613,0.509648 0.00971,1.008634 0,1.5 0,3.892522 1.4276533,7.667648 2.666667,11.2 C 11.940816,26.999179 13.777904,30.183024 15.5,33.433333 18.167323,38.46768 24,48 24,48 c 0,0 5.832677,-9.53232 8.5,-14.566667 1.722096,-3.250309 3.559184,-6.434154 4.833333,-10.066666 C 38.572347,19.834315 40,16.059189 40,12.166667 c -0.01515,-0.51968 -0.0099,-1.021131 0,-1.5 C 40,4.775632 36.418277,0 32,0 c -4.418277,0 -7.466667,3.7089653 -7.466667,9.6 0,1.066667 -1.066666,1.066667 -1.066666,0 z"
     fill="currentColor" />
</svg>
