<?xml version="1.0" encoding="UTF-8" standalone="no"?>
<!-- Created with Inkscape (http://www.inkscape.org/) -->

<svg
   width="48"
   height="48"
   viewBox="0 0 48 48"
   xmlns="http://www.w3.org/2000/svg">
  <defs
     id="defs1" />
  <path
     d="m 26.666667,29.866667 c 0.533333,2.133333 2.666666,7.466666 6.4,7.466666 4.8,0 6.933333,-4.266666 6.933333,-9.6 C 40,24 38.62456,21.540112 37.333333,18.666667 35.958464,15.607077 33.931029,12.876048 32,10.133333 29.522507,6.6144533 24,0 24,0 24,0 18.477493,6.6144533 16,10.133333 14.068971,12.876048 12.041536,15.607077 10.666667,18.666667 9.37544,21.540112 8,24 8,27.733333 c 0,5.333334 2.133333,9.6 6.933333,9.6 3.733334,0 5.866667,-5.333333 6.4,-7.466666 0.533334,-0.533334 0.533334,0 0.533334,0.533333 C 21.333333,34.666667 21.333333,35.733333 20.8,38.933333 20.266667,42.133333 18.666667,48 18.666667,48 c 2.666666,-1.066667 8,-1.066667 10.666666,0 0,0 -1.6,-5.866667 -2.133333,-9.066667 -0.533333,-3.2 -0.533333,-4.266666 -1.066667,-8.533333 0,-0.533333 0,-1.066667 0.533334,-0.533333 z"
     fill="currentColor" />
</svg>
